<?xml version="1.0" standalone="no"?>
<!DOCTYPE svg PUBLIC "-//W3C//DTD SVG 20010904//EN"
 "http://www.w3.org/TR/2001/REC-SVG-20010904/DTD/svg10.dtd">
<svg version="1.0" xmlns="http://www.w3.org/2000/svg"
 width="420.000000pt" height="420.000000pt" viewBox="0 0 420.000000 420.000000"
 preserveAspectRatio="xMidYMid meet">
<metadata>
Created by potrace 1.14, written by Peter Selinger 2001-2017
</metadata>
<g transform="translate(0.000000,420.000000) scale(0.100000,-0.100000)"
fill="#000000" stroke="none">
<path d="M0 2100 l0 -2100 2100 0 2100 0 0 2100 0 2100 -2100 0 -2100 0 0
-2100z m2295 1505 c221 -14 504 -77 728 -161 67 -26 202 -85 301 -132 l179
-87 -6 -260 c-3 -143 -13 -321 -22 -395 -101 -846 -441 -1391 -1166 -1876 -86
-57 -162 -104 -169 -104 -21 0 -316 201 -435 297 -123 98 -301 272 -387 378
-188 233 -334 516 -417 811 -77 273 -111 528 -118 889 l-6 260 159 77 c321
156 546 231 835 278 130 21 342 39 394 34 17 -2 75 -6 130 -9z"/>
<path d="M1950 3509 c-331 -36 -607 -118 -950 -281 l-133 -62 7 -196 c14 -408
64 -716 161 -1001 46 -134 157 -359 233 -472 176 -263 434 -510 753 -722 62
-41 116 -75 120 -75 13 0 233 151 337 232 627 490 896 1077 928 2031 l7 203
-133 63 c-306 144 -545 220 -823 262 -156 23 -388 32 -507 18z m510 -208 c233
-40 427 -100 650 -201 l105 -47 -2 -144 c-3 -142 -12 -257 -35 -414 l-11 -79
-23 53 c-39 87 -110 186 -185 254 l-69 65 54 17 c67 21 161 74 150 84 -5 4
-36 14 -68 21 -68 14 -166 55 -311 128 -186 94 -390 148 -608 159 -351 17
-633 -87 -739 -274 -16 -29 -36 -53 -44 -53 -25 0 -148 -66 -200 -108 l-51
-40 -6 111 c-4 62 -7 136 -7 165 l0 53 78 36 c271 124 512 194 782 229 139 18
390 11 540 -15z m-178 -212 c160 -23 205 -37 423 -130 90 -38 177 -72 194 -75
86 -18 -17 -39 -146 -31 -47 3 -81 2 -76 -2 4 -4 42 -32 83 -61 264 -187 352
-346 393 -709 l6 -44 -77 75 c-73 71 -224 198 -236 198 -3 0 15 -34 41 -76
124 -204 148 -468 65 -704 l-20 -55 -6 40 c-36 233 -68 316 -150 393 -49 46
-96 79 -96 67 0 -3 9 -38 20 -78 31 -107 36 -225 16 -327 -17 -82 -70 -235
-85 -244 -4 -3 -5 36 -3 85 10 224 -52 470 -158 624 -28 40 -34 44 -48 33 -15
-12 -16 -11 -2 6 13 17 8 24 -66 96 -44 42 -105 93 -136 113 -91 58 -176 99
-189 91 -7 -4 -9 -3 -6 3 4 6 -7 16 -25 22 -39 14 -41 14 -32 -1 4 -7 3 -8 -5
-4 -6 4 -9 11 -6 15 2 5 -26 20 -63 34 l-67 25 47 1 c25 1 75 -8 109 -19 35
-10 65 -17 67 -15 2 2 -15 17 -37 33 -38 27 -66 37 -171 58 l-35 7 50 12 c102
23 96 32 -21 37 -60 3 -122 10 -139 17 l-30 13 46 14 c56 17 103 65 120 124
14 46 25 55 88 65 40 7 43 9 27 20 -60 44 -161 20 -297 -71 -101 -67 -134 -77
-163 -45 -19 21 -13 44 22 84 21 24 0 22 -32 -4 l-26 -20 -25 28 c-31 36 -31
43 6 89 94 119 273 199 479 213 120 9 200 5 372 -20z m-877 -305 c9 -9 30 -45
46 -80 36 -77 72 -101 204 -142 l90 -27 -210 -7 c-368 -12 -389 -19 -414 -133
l-8 -40 -23 50 c-14 29 -25 77 -28 117 -4 58 -1 72 21 110 31 54 98 103 191
139 82 33 108 35 131 13z m335 -278 c0 -3 -24 -12 -52 -22 -71 -22 -70 -22
-52 -49 16 -25 36 -95 27 -95 -3 0 -24 16 -46 36 -22 20 -65 48 -96 62 -48 22
-69 26 -152 25 -53 0 -116 -4 -140 -8 -34 -5 -41 -4 -33 5 7 7 38 16 70 20 33
4 73 13 89 18 28 10 385 17 385 8z m-255 -137 c91 -34 147 -117 132 -197 l-5
-27 20 25 21 25 -7 -30 c-4 -16 -23 -66 -43 -110 -90 -204 -123 -325 -125
-455 -1 -39 -3 -70 -4 -70 -1 0 -26 35 -54 78 -119 177 -261 525 -261 638 0
71 22 121 63 140 44 20 190 11 263 -17z m511 -9 c0 -12 -4 -16 -9 -11 -5 5 -6
14 -3 20 10 15 12 14 12 -9z m102 -247 c149 -197 170 -246 239 -548 59 -261
83 -325 161 -435 l17 -24 -44 24 c-70 39 -153 127 -194 206 -40 77 -50 111
-103 344 -49 217 -81 325 -118 400 -36 74 -107 184 -163 250 -22 27 -4 13 46
-35 45 -44 117 -126 159 -182z m-140 227 c7 0 12 -4 12 -10 0 -16 -18 -12 -39
9 -11 11 -23 16 -27 13 -4 -4 -4 -1 0 6 7 11 11 10 25 -2 10 -9 23 -16 29 -16z
m193 -37 c13 -16 12 -17 -3 -4 -10 7 -18 15 -18 17 0 8 8 3 21 -13z m-71 -87
c7 -11 -15 5 -49 34 -33 29 -61 55 -61 57 0 8 98 -73 110 -91z m145 35 c3 -5
2 -12 -3 -15 -5 -3 -9 1 -9 9 0 17 3 19 12 6z m-89 -93 l29 -33 -32 29 c-31
28 -38 36 -30 36 2 0 16 -15 33 -32z m60 -57 c1 -6 0 -7 -3 -1 -2 5 -9 8 -13
5 -5 -3 -11 -1 -14 4 -4 5 2 8 11 7 9 -2 18 -8 19 -15z m34 -43 c0 -6 6 -19
13 -28 6 -9 2 -5 -10 8 -23 23 -32 48 -13 37 6 -3 10 -11 10 -17z m60 -64 c0
-8 -19 -13 -24 -6 -3 5 1 9 9 9 8 0 15 -2 15 -3z m15 -42 c-3 -3 -11 0 -18 7
-9 10 -8 11 6 5 10 -3 15 -9 12 -12z m63 -82 c42 -65 34 -64 -12 0 -20 28 -33
50 -28 50 4 0 22 -23 40 -50z m81 -85 c7 3 8 0 5 -9 -8 -20 -6 -21 -35 11 -20
23 -20 25 -2 9 12 -10 26 -15 32 -11z m62 -107 c20 -37 -1 -16 -31 30 -27 40
-27 42 -5 17 14 -16 30 -38 36 -47z m59 -103 c0 -8 -2 -15 -4 -15 -2 0 -6 7
-10 15 -3 8 -1 15 4 15 6 0 10 -7 10 -15z m20 -60 c0 -5 -5 -3 -10 5 -5 8 -10
20 -10 25 0 6 5 3 10 -5 5 -8 10 -19 10 -25z m24 -65 c5 -17 4 -20 -2 -10 -5
8 -13 26 -16 40 -5 17 -4 20 2 10 5 -8 13 -26 16 -40z"/>
<path d="M1320 2712 c0 -4 20 -19 45 -34 53 -32 57 -28 13 13 -31 28 -58 38
-58 21z"/>
</g>
</svg>
